<?xml version="1.0" encoding="UTF-8" ?>
<!DOCTYPE svg PUBLIC "-//W3C//DTD SVG 1.1//EN" "http://www.w3.org/Graphics/SVG/1.1/DTD/svg11.dtd">
<svg width="450pt" height="141pt" viewBox="0 0 450 141" version="1.1" xmlns="http://www.w3.org/2000/svg">
<g id="#000000e4">
<path fill="#000000" opacity="0.89" d=" M 34.94 0.00 L 37.60 0.00 C 38.73 2.47 39.10 5.24 40.44 7.60 C 42.51 10.75 46.48 11.15 49.83 12.00 C 49.91 12.75 50.08 14.26 50.17 15.02 C 47.03 16.09 43.29 16.34 40.99 19.00 C 39.02 21.24 39.02 24.43 37.82 27.05 C 37.12 27.08 35.73 27.14 35.03 27.17 C 33.49 23.79 33.57 19.17 29.72 17.30 C 27.31 15.77 21.38 16.55 23.00 12.15 C 25.62 10.97 28.85 11.07 31.04 9.03 C 33.71 6.80 33.91 3.09 34.94 0.00 M 32.85 13.72 C 34.06 14.82 35.24 15.95 36.42 17.09 C 37.57 15.92 38.74 14.77 39.91 13.62 C 38.72 12.48 37.55 11.31 36.42 10.10 C 35.24 11.31 34.05 12.52 32.85 13.72 Z" />
<path fill="#000000" opacity="0.89" d=" M 76.17 0.00 L 83.62 0.00 C 96.21 1.05 108.37 6.67 117.13 15.81 C 128.36 27.26 133.88 44.12 131.39 59.98 C 129.81 70.86 124.69 81.21 116.93 89.01 C 111.79 94.52 104.23 97.55 100.68 104.53 C 102.78 104.56 104.88 104.60 106.98 104.63 C 106.97 106.13 106.97 107.63 106.97 109.14 C 104.27 109.14 101.58 109.14 98.88 109.14 C 98.54 110.66 98.21 112.18 97.88 113.70 C 99.39 113.71 100.91 113.72 102.42 113.73 C 102.41 115.23 102.41 116.73 102.40 118.24 C 100.89 118.26 99.38 118.28 97.87 118.31 C 97.79 121.04 98.20 123.88 97.42 126.55 C 96.21 127.18 94.83 127.37 93.52 127.73 C 92.91 134.14 88.17 139.87 81.71 141.00 L 77.40 141.00 C 70.82 139.89 66.14 133.94 65.68 127.44 C 64.40 127.36 63.11 127.29 61.83 127.22 C 61.31 124.28 61.21 121.29 61.24 118.31 C 59.77 118.29 58.31 118.27 56.85 118.26 C 56.86 116.75 56.87 115.25 56.88 113.75 C 58.35 113.72 59.82 113.69 61.29 113.67 C 60.97 112.28 60.69 110.89 60.25 109.54 C 57.66 108.73 54.85 109.22 52.18 109.10 C 52.17 107.60 52.17 106.10 52.17 104.61 C 54.26 104.58 56.35 104.54 58.43 104.49 C 54.74 97.25 46.78 94.22 41.60 88.32 C 31.90 78.36 26.98 64.41 27.08 50.61 C 28.69 50.66 30.30 50.71 31.91 50.75 C 31.24 66.73 39.27 82.64 52.54 91.57 C 57.46 94.71 61.06 99.41 63.67 104.57 C 74.25 104.59 84.84 104.57 95.42 104.57 C 96.97 101.81 98.51 98.99 100.67 96.64 C 103.84 93.07 108.14 90.81 111.66 87.64 C 122.12 78.28 127.99 64.10 127.24 50.09 C 126.78 36.66 120.10 23.68 109.66 15.28 C 100.49 7.64 88.37 4.01 76.51 4.62 C 76.39 3.08 76.28 1.54 76.17 0.00 M 65.05 109.11 C 65.35 110.64 65.65 112.18 65.95 113.72 C 75.04 113.72 84.13 113.70 93.23 113.72 C 93.50 112.19 93.77 110.65 94.04 109.12 C 84.38 109.15 74.71 109.16 65.05 109.11 M 66.02 118.27 C 66.01 119.75 66.01 121.24 66.01 122.72 C 75.06 122.71 84.11 122.72 93.15 122.72 C 93.14 121.23 93.12 119.75 93.11 118.27 C 84.08 118.29 75.05 118.28 66.02 118.27 M 70.31 127.50 C 70.79 132.66 75.59 137.30 80.94 136.28 C 85.42 135.75 88.23 131.65 88.89 127.47 C 82.70 127.40 76.50 127.36 70.31 127.50 Z" />
<path fill="#000000" opacity="0.89" d=" M 81.91 20.02 C 81.91 15.25 86.25 11.14 91.00 11.30 C 94.45 11.22 97.35 13.50 99.25 16.19 C 102.49 15.65 106.24 15.75 108.61 18.37 C 111.42 20.72 111.71 24.60 111.16 27.98 C 117.09 30.55 120.05 37.75 117.23 43.66 C 119.75 45.43 122.51 47.60 122.77 50.92 C 123.61 55.12 120.80 59.04 117.21 60.90 C 120.02 66.76 117.22 74.14 111.18 76.57 C 111.53 79.60 111.69 83.08 109.39 85.43 C 107.04 88.51 102.91 89.19 99.32 88.39 C 97.50 90.77 95.13 93.06 91.97 93.24 C 86.72 94.05 81.52 89.34 81.87 84.03 C 81.88 62.70 81.80 41.36 81.91 20.02 M 88.63 16.64 C 86.67 17.61 86.42 20.04 86.41 21.97 C 86.42 41.99 86.44 62.01 86.40 82.03 C 86.41 84.06 86.39 86.55 88.37 87.76 C 90.51 89.50 94.25 88.52 95.06 85.85 C 94.39 83.76 93.56 81.73 92.95 79.63 C 94.04 79.60 96.21 79.54 97.30 79.51 C 98.32 81.39 99.43 84.09 101.98 84.05 C 105.09 84.43 107.76 80.93 106.58 78.05 C 105.99 76.11 103.85 75.52 102.29 74.61 C 102.31 73.14 102.33 71.68 102.37 70.21 C 104.63 70.77 106.82 71.61 108.89 72.68 C 111.38 71.34 113.78 69.05 113.68 66.01 C 113.82 61.48 108.74 57.72 104.49 59.62 C 101.65 60.49 100.60 63.43 99.84 66.00 C 98.31 66.00 96.78 66.00 95.26 66.00 C 95.48 59.53 101.38 53.73 107.99 54.61 C 110.99 54.50 113.94 58.30 116.69 55.73 C 119.57 53.41 117.97 47.74 114.11 47.97 C 110.57 49.60 106.52 51.04 102.72 49.31 C 98.26 47.67 95.66 43.19 95.28 38.60 C 96.77 38.59 98.26 38.58 99.74 38.58 C 100.56 41.03 101.46 43.96 104.19 44.88 C 108.32 46.84 113.57 43.54 113.67 38.99 C 113.97 35.74 111.42 33.32 108.82 31.89 C 106.80 33.06 104.62 33.96 102.29 34.26 C 102.29 32.79 102.29 31.32 102.30 29.85 C 103.93 29.07 106.01 28.50 106.56 26.53 C 107.97 23.36 104.33 19.47 101.07 20.76 C 98.94 21.16 98.21 23.25 97.56 25.02 C 95.98 25.00 94.40 24.96 92.81 24.91 C 93.45 22.92 94.29 21.00 94.96 19.01 C 94.73 16.17 90.76 15.13 88.63 16.64 Z" />
<path fill="#000000" opacity="0.89" d=" M 59.87 16.16 C 61.45 14.58 62.89 12.69 65.06 11.89 C 68.60 10.48 73.04 11.67 75.34 14.75 C 77.29 17.01 77.46 20.14 77.45 23.00 C 77.35 43.33 77.51 63.67 77.37 84.00 C 77.47 88.99 73.03 93.60 67.97 93.29 C 64.50 93.38 61.95 90.84 59.86 88.40 C 56.46 89.06 52.46 88.73 50.16 85.80 C 47.62 83.40 47.63 79.74 47.87 76.51 C 45.28 75.08 42.82 73.15 41.76 70.28 C 40.28 67.31 41.20 64.02 41.80 60.97 C 39.88 59.30 37.54 57.82 36.81 55.21 C 35.05 50.71 37.91 45.84 41.92 43.70 C 39.24 37.75 42.04 30.68 47.90 27.97 C 47.67 24.87 47.53 21.30 49.97 18.96 C 52.37 16.04 56.35 15.50 59.87 16.16 M 63.85 18.81 C 64.99 20.74 65.80 22.83 66.25 25.02 C 64.69 25.01 63.14 24.99 61.59 24.95 C 60.81 23.25 60.11 21.02 57.96 20.64 C 54.67 19.68 51.29 23.32 52.63 26.51 C 53.21 28.48 55.29 29.13 56.98 29.85 C 56.97 31.36 56.96 32.86 56.95 34.37 C 54.69 33.92 52.53 33.12 50.55 31.95 C 48.49 33.10 46.26 34.51 45.76 37.01 C 44.49 41.32 48.45 46.09 52.95 45.39 C 56.53 45.22 58.81 41.88 59.33 38.62 C 60.85 38.61 62.38 38.60 63.90 38.60 C 63.42 41.46 62.81 44.53 60.55 46.56 C 57.06 50.43 51.00 51.07 46.56 48.51 C 43.82 46.63 40.45 50.13 41.00 52.95 C 41.06 55.12 43.36 56.07 44.94 57.06 C 48.72 54.44 53.87 53.54 57.97 56.02 C 61.74 57.84 63.33 62.03 63.98 65.91 C 62.42 65.96 60.86 66.01 59.30 66.03 C 59.18 60.76 52.81 57.07 48.43 60.36 C 43.67 63.44 45.26 71.18 50.60 72.65 C 52.56 71.47 54.72 70.71 56.97 70.30 C 56.98 71.74 56.98 73.19 56.98 74.64 C 55.48 75.51 53.35 75.92 52.77 77.80 C 51.31 80.59 53.83 84.43 57.02 84.06 C 59.62 84.11 60.92 81.65 61.72 79.56 C 63.24 79.57 64.75 79.59 66.27 79.62 C 65.71 81.85 64.89 83.99 63.86 86.04 C 65.24 87.63 67.21 89.34 69.48 88.45 C 71.88 87.88 72.95 85.34 72.73 83.07 C 72.69 62.35 72.76 41.62 72.70 20.90 C 72.85 18.32 70.75 15.65 68.00 15.98 C 66.09 15.78 65.04 17.68 63.85 18.81 Z" />
<path fill="#000000" opacity="0.89" d=" M 166.34 27.37 C 172.15 16.36 189.52 15.39 197.21 24.82 C 199.18 27.14 200.12 30.07 201.03 32.92 C 197.36 32.95 193.70 32.97 190.04 32.96 C 188.12 29.93 184.83 27.39 181.03 28.32 C 171.82 29.99 172.41 46.78 181.93 47.52 C 185.50 48.00 188.28 45.45 190.07 42.68 C 193.72 42.62 197.36 42.63 201.01 42.68 C 199.71 48.79 195.43 54.42 189.31 56.27 C 182.69 58.23 174.69 57.44 169.52 52.52 C 163.08 46.07 162.20 35.27 166.34 27.37 Z" />
<path fill="#000000" opacity="0.89" d=" M 206.89 18.77 C 214.45 19.12 222.19 17.89 229.62 19.64 C 236.70 21.47 239.98 30.33 236.57 36.59 C 235.27 39.65 232.11 41.02 229.30 42.33 C 232.32 47.14 235.09 52.10 237.99 56.98 C 234.08 56.95 230.18 56.95 226.27 56.93 C 224.15 52.97 221.95 49.05 219.84 45.08 C 219.38 44.01 218.55 43.21 217.50 42.74 C 217.43 47.48 217.50 52.22 217.48 56.96 C 213.95 56.95 210.41 56.95 206.88 56.95 C 206.89 44.22 206.87 31.50 206.89 18.77 M 217.47 27.70 C 217.46 30.41 217.47 33.12 217.53 35.83 C 220.15 35.71 222.86 36.04 225.42 35.35 C 228.02 33.82 227.82 29.19 224.93 28.07 C 222.51 27.40 219.95 27.77 217.47 27.70 Z" />
<path fill="#000000" opacity="0.89" d=" M 243.37 56.92 C 243.54 44.18 243.22 31.43 243.53 18.70 C 251.67 18.84 259.81 18.73 267.95 18.76 C 267.95 21.59 267.95 24.41 267.95 27.24 C 263.28 27.24 258.62 27.24 253.95 27.24 C 253.96 29.38 253.96 31.51 253.98 33.65 C 258.10 33.64 262.22 33.64 266.34 33.66 C 266.35 36.29 266.36 38.93 266.38 41.57 C 262.23 41.60 258.08 41.59 253.93 41.60 C 253.94 43.91 253.97 46.23 254.02 48.55 C 258.66 48.52 263.31 48.53 267.95 48.52 C 267.95 51.34 267.95 54.15 267.97 56.97 C 259.77 56.92 251.57 57.00 243.37 56.92 Z" />
<path fill="#000000" opacity="0.89" d=" M 285.24 19.01 C 289.35 18.80 293.47 18.82 297.58 19.00 C 302.12 31.67 306.83 44.29 311.42 56.94 C 307.68 56.96 303.95 56.96 300.22 56.95 C 299.54 54.83 298.85 52.71 298.16 50.59 C 293.63 50.59 289.11 50.60 284.59 50.57 C 283.87 52.68 283.18 54.79 282.50 56.90 C 278.77 56.96 275.03 56.96 271.30 56.97 C 276.01 44.34 280.66 31.69 285.24 19.01 M 291.28 30.34 C 289.90 34.44 288.54 38.54 287.19 42.65 C 289.96 42.65 292.73 42.64 295.49 42.64 C 294.12 38.53 292.90 34.36 291.28 30.34 Z" />
<path fill="#000000" opacity="0.89" d=" M 313.53 18.77 C 323.87 18.74 334.21 18.80 344.55 18.73 C 344.63 21.59 344.63 24.46 344.45 27.31 C 341.04 27.22 337.64 27.22 334.24 27.24 C 334.23 37.14 334.24 47.05 334.24 56.95 C 330.70 56.95 327.17 56.95 323.64 56.95 C 323.66 47.05 323.62 37.14 323.66 27.23 C 320.28 27.24 316.91 27.24 313.53 27.23 C 313.52 24.41 313.52 21.59 313.53 18.77 Z" />
<path fill="#000000" opacity="0.89" d=" M 349.28 18.77 C 352.79 18.76 356.31 18.76 359.83 18.75 C 359.84 31.49 359.81 44.22 359.85 56.96 C 356.32 56.95 352.79 56.95 349.26 56.95 C 349.31 44.22 349.28 31.50 349.28 18.77 Z" />
<path fill="#000000" opacity="0.89" d=" M 364.29 18.75 C 367.97 18.78 371.65 18.79 375.33 18.69 C 378.59 27.74 381.01 37.07 384.18 46.16 C 387.19 37.07 389.86 27.87 392.83 18.77 C 396.54 18.76 400.27 18.76 403.99 18.76 C 399.64 31.50 395.37 44.25 390.93 56.95 C 386.36 56.95 381.80 56.98 377.24 56.92 C 373.06 44.15 368.56 31.49 364.29 18.75 Z" />
<path fill="#000000" opacity="0.89" d=" M 408.39 56.95 C 408.53 44.19 408.20 31.43 408.55 18.69 C 416.68 18.85 424.81 18.73 432.94 18.76 C 432.94 21.59 432.95 24.41 432.95 27.24 C 428.27 27.24 423.60 27.23 418.93 27.24 C 418.94 29.38 418.96 31.51 418.98 33.65 C 423.10 33.64 427.22 33.64 431.34 33.65 C 431.35 36.29 431.36 38.93 431.38 41.58 C 427.22 41.60 423.07 41.59 418.93 41.60 C 418.94 43.91 418.96 46.23 419.00 48.54 C 423.65 48.52 428.30 48.53 432.95 48.52 C 432.94 51.33 432.95 54.15 432.96 56.97 C 424.77 56.93 416.58 56.97 408.39 56.95 Z" />
<path fill="#000000" opacity="0.89" d=" M 20.96 22.84 C 22.18 23.09 24.43 22.25 24.70 24.09 C 25.31 27.36 26.23 31.03 29.40 32.75 C 31.50 34.40 35.34 33.17 36.50 35.93 C 36.71 39.31 32.54 38.49 30.43 39.54 C 26.55 40.87 25.30 45.06 24.70 48.69 C 24.32 50.75 21.17 50.40 20.71 48.62 C 20.03 46.07 19.87 43.13 17.71 41.30 C 15.75 39.01 12.52 39.19 9.95 38.09 C 8.35 37.13 9.34 35.44 9.95 34.20 C 12.65 34.07 15.58 33.67 17.53 31.58 C 20.18 29.47 20.26 25.88 20.96 22.84 M 19.09 36.40 C 20.35 37.50 21.55 38.66 22.69 39.87 C 23.85 38.65 25.03 37.44 26.21 36.23 C 25.06 35.14 23.91 34.04 22.77 32.93 C 21.55 34.10 20.33 35.26 19.09 36.40 Z" />
<path fill="#000000" opacity="0.89" d=" M 202.97 89.97 C 205.78 82.38 214.01 77.65 221.99 78.63 C 229.05 78.82 235.47 83.87 237.37 90.66 C 235.70 90.69 234.04 90.72 232.38 90.74 C 229.28 83.45 219.52 80.92 212.98 85.06 C 205.80 89.55 204.87 100.16 209.01 107.01 C 213.47 114.63 225.84 115.10 231.14 108.16 C 232.92 105.93 233.66 103.12 234.19 100.37 C 229.18 100.34 224.17 100.37 219.16 100.34 C 219.16 99.43 219.15 97.59 219.15 96.67 C 225.52 96.62 231.90 96.64 238.27 96.66 C 238.77 102.71 236.92 109.18 232.16 113.19 C 224.71 119.45 212.21 118.69 205.97 111.07 C 201.14 105.31 200.57 96.88 202.97 89.97 Z" />
<path fill="#000000" opacity="0.89" d=" M 246.17 78.87 C 253.15 78.89 260.13 78.87 267.11 78.88 C 267.11 80.20 267.12 81.51 267.13 82.82 C 261.74 82.83 256.35 82.82 250.95 82.83 C 250.95 87.23 250.95 91.64 250.96 96.04 C 255.80 96.05 260.65 96.05 265.50 96.04 C 265.47 97.27 265.45 98.51 265.43 99.74 C 260.60 99.68 255.78 99.70 250.95 99.71 C 250.95 104.16 250.95 108.60 250.96 113.04 C 256.34 113.06 261.73 113.04 267.12 113.05 C 267.12 114.35 267.12 115.64 267.12 116.94 C 260.13 116.96 253.14 116.94 246.15 116.96 C 246.19 104.26 246.15 91.56 246.17 78.87 Z" />
<path fill="#000000" opacity="0.89" d=" M 274.65 78.82 C 276.32 78.89 277.99 78.94 279.66 79.02 C 286.05 89.09 292.66 99.02 299.24 108.97 C 299.33 98.94 299.26 88.90 299.28 78.86 C 300.93 78.87 302.57 78.88 304.23 78.90 C 304.25 91.58 304.23 104.27 304.24 116.95 C 302.56 116.94 300.88 116.93 299.20 116.93 C 292.74 106.83 286.06 96.87 279.48 86.85 C 279.46 96.88 279.47 106.92 279.48 116.95 C 277.86 116.95 276.25 116.95 274.64 116.95 C 274.66 104.24 274.63 91.53 274.65 78.82 Z" />
<path fill="#000000" opacity="0.89" d=" M 314.84 86.91 C 320.72 76.47 337.62 75.65 344.76 85.11 C 346.23 86.96 347.05 89.19 347.96 91.34 C 346.29 91.34 344.62 91.34 342.96 91.33 C 340.04 83.98 330.57 80.83 323.74 84.67 C 316.38 89.04 315.35 99.72 319.21 106.75 C 322.60 112.97 331.14 114.38 337.09 111.23 C 339.81 109.78 341.47 107.09 343.03 104.54 C 344.68 104.54 346.32 104.55 347.98 104.56 C 346.42 109.24 343.30 113.66 338.65 115.64 C 331.59 118.63 322.41 117.82 317.03 111.96 C 310.97 105.29 310.51 94.60 314.84 86.91 Z" />
<path fill="#000000" opacity="0.89" d=" M 352.69 78.90 C 354.56 78.88 356.42 78.85 358.29 78.82 C 361.48 84.92 364.54 91.08 367.70 97.20 C 371.10 91.22 374.05 84.99 377.21 78.88 C 379.02 78.88 380.83 78.89 382.65 78.90 C 378.76 86.83 374.14 94.41 370.49 102.44 C 369.87 107.24 370.41 112.11 370.24 116.94 C 368.57 116.94 366.92 116.95 365.27 116.95 C 365.10 112.01 365.70 107.01 365.00 102.11 C 360.99 94.33 356.87 86.60 352.69 78.90 Z" />
<path fill="#000000" opacity="0.89" d=" M 177.12 79.66 C 178.91 79.64 180.70 79.61 182.49 79.57 C 187.46 91.94 191.91 104.51 196.68 116.95 C 194.92 116.94 193.16 116.93 191.41 116.92 C 190.37 114.04 189.33 111.17 188.35 108.27 C 182.72 108.20 177.08 108.25 171.45 108.24 C 170.40 111.17 169.36 114.10 168.25 117.01 C 166.52 116.98 164.81 116.96 163.09 116.93 C 167.74 104.50 172.47 92.10 177.12 79.66 M 172.89 104.31 C 177.54 104.48 182.20 104.38 186.86 104.41 C 184.56 97.98 182.24 91.56 179.89 85.14 C 177.49 91.51 175.22 97.92 172.89 104.31 Z" />
</g>
</svg>
